#tb 0: 1/25
0,          0,          0,        1,   195264, f5b71c1d95ed9d1b9ffaaed946d2c554
0,          1,          1,        1,   195272, 30b0058c43e07814f3e4864b0c558d6e
0,          2,          2,        1,   195892, f7814ed390a88acded660d0bf9427675
0,          3,          3,        1,   195320, f6146b50ed7fd18f63ef192dcc8fef7b
0,          4,          4,        1,   194640, 143611fe4905227fe5110dd507b2f0a8
0,          5,          5,        1,   195072, 61b37039712a47a57303f768927ab67b
0,          6,          6,        1,   194488, 5e159e73ce4cb29bebb10de35da29383
0,          7,          7,        1,   195228, 131642b2a5e332068339516dc8638e48
0,          8,          8,        1,   194360, 0d9c4b75a7f33beaac9ef643c704a6e0
0,          9,          9,        1,   195252, 1d7879a44418c6b0a0abfa2f972e471a
0,         10,         10,        1,   195000, ab70dd483502f27eb98056dc1bfd9d5a
0,         11,         11,        1,   195532, 7126075b9cc0491e61fe738a173c6de2
0,         12,         12,        1,   193836, cd4257a848045b98f2eefef064250db4
0,         13,         13,        1,   194856, 11567f349e791347ca53aae0f4c0799b
0,         14,         14,        1,   195760, 4c684f86ebbd9f0a344ecfec00f09c1e
0,         15,         15,        1,   195388, 0795f92355b433dcab444d1cd904ee7c
0,         16,         16,        1,   195248, cab5c1de6f1a26cc30d1f9e18d2eac86
0,         17,         17,        1,   194792, 3f7053548d808301f85e088ed7a81ad8
0,         18,         18,        1,   194044, 53b3aa44bf95cc63208d41465cb04eea
0,         19,         19,        1,   194324, 5179610e0e3f6ce3f95fc193368e9bac
0,         20,         20,        1,   193872, 4b0b61055e417ccddd35c7ccdcf27779
0,         21,         21,        1,   193836, ef2404e633e32ff11e4486970149865e
0,         22,         22,        1,   194872, 9d436ba22481a2508425044bc7e008b1
0,         23,         23,        1,   195240, 5d1fe26e63077879d8bac6100b943e89
0,         24,         24,        1,   195516, 880cc1ae98c012788a1ac83330ce7593
0,         25,         25,        1,   195508, 381d1162ffc4d7773d665262c30b0a3c
0,         26,         26,        1,   195292, 4ba16e9f821ce52063efc159fbf85328
0,         27,         27,        1,   194468, b74ff25c30aefcf7f67db8a612850953
0,         28,         28,        1,   192516, c4802f4ebd64ab160f2f010c3659029c
0,         29,         29,        1,   192464, d6efdd2e6fbbfe80ca172e71c03049d9
0,         30,         30,        1,   193696, f1a4377ba7cb575210e2b5e727b5ab80
0,         31,         31,        1,   194500, a43505b9bbd48e2d90833dd0a76835ea
0,         32,         32,        1,   194364, 3f924d8dbfeb5937998d1e5fa8750583
0,         33,         33,        1,   195916, f3a88d66651aaf090ef2793d5925f995
0,         34,         34,        1,   195560, bfc13e50f8ff9645e6fa14d65e9b50d8
0,         35,         35,        1,   195288, 0147ff42692d46139fc15ce5946ab206
0,         36,         36,        1,   194272, 2b99f99115326e8b2e8116ff8bd36eb9
0,         37,         37,        1,   194464, c6365f3ab37d823ba0bdef05b4d753ba
0,         38,         38,        1,   192712, 1e259445e4324a61057fc212dcb88907
0,         39,         39,        1,   193036, 1aa02bfb781c91997b9a3bbbe4f36e1d
0,         40,         40,        1,   193164, 851685117ef8f9eca02d537645bd5b17
0,         41,         41,        1,   193528, c7dfed0b5f43e30a3df5b7ab4fe71651
0,         42,         42,        1,   194124, fb5e4ef20484ba4cf61f923f886a2170
0,         43,         43,        1,   194236, 7fd8294a2f972ef855a52a89dd450b30
0,         44,         44,        1,   193748, 7ad5c528463bef0fd80fd6fc4cab4e0c
0,         45,         45,        1,   191752, a490b1bc7619c1b41a04e8b6ea86a748
0,         46,         46,        1,   191132, a9d25233c59792c6323002f8242d8512
0,         47,         47,        1,   191708, f3f34fe88994a927f258962f5caea435
0,         48,         48,        1,   191588, 5c70bf58c4e2a1a0959cf6c7d6b7dd11
0,         49,         49,        1,   191448, 804f24b6a536fe2f93206d431525125f
